<svg width="202" height="217" viewBox="0 0 202 217" fill="none" xmlns="http://www.w3.org/2000/svg">
<path d="M138.214 15.7808C128.765 5.60419 115.567 0 101 0C86.3554 0 73.1141 5.57028 63.7087 15.684C54.2014 25.9091 49.5691 39.8057 50.6568 54.8116C52.8127 84.4164 75.3962 108.499 101 108.499C126.604 108.499 149.148 84.4212 151.338 54.8212C152.441 39.951 147.779 26.0834 138.214 15.7808ZM186.459 216.999H15.5408C13.3036 217.028 11.0881 216.559 9.05545 215.626C7.02277 214.694 5.22406 213.321 3.79017 211.608C0.63401 207.844 -0.638167 202.705 0.303827 197.508C4.40198 174.829 17.1917 155.779 37.2941 142.405C55.1531 130.533 77.7755 123.999 101 123.999C124.225 123.999 146.847 130.538 164.706 142.405C184.808 155.774 197.598 174.824 201.696 197.503C202.638 202.7 201.366 207.839 198.21 211.603C196.776 213.317 194.978 214.691 192.945 215.624C190.912 216.558 188.697 217.027 186.459 216.999Z" fill="white"/>
</svg>
