<svg width="134" height="30" viewBox="0 0 134 30" fill="none" xmlns="http://www.w3.org/2000/svg">
<path d="M22.736 6.15169C22.8556 6.06458 22.9963 6.01282 23.1428 6.00209C23.2893 5.99136 23.4358 6.02207 23.5664 6.09086C23.6969 6.15964 23.8064 6.26385 23.8829 6.39206C23.9594 6.52027 23.9999 6.66753 24 6.81772V23.1823C23.9999 23.3325 23.9594 23.4797 23.8829 23.6079C23.8064 23.7362 23.6969 23.8404 23.5664 23.9091C23.4358 23.9779 23.2893 24.0086 23.1428 23.9979C22.9963 23.9872 22.8556 23.9354 22.736 23.8483L12.7997 16.5906V23.1823C12.7996 23.3325 12.7591 23.4797 12.6826 23.6079C12.6061 23.7362 12.4966 23.8404 12.3661 23.9091C12.2355 23.9779 12.089 24.0086 11.9425 23.9979C11.796 23.9872 11.6553 23.9354 11.5356 23.8483L0.33532 15.666C0.231611 15.5903 0.147079 15.4904 0.0887547 15.3746C0.0304298 15.2587 0 15.1303 0 15C0 14.8697 0.0304298 14.7413 0.0887547 14.6254C0.147079 14.5096 0.231611 14.4097 0.33532 14.334L11.5356 6.15169C11.6553 6.06458 11.796 6.01282 11.9425 6.00209C12.089 5.99136 12.2355 6.02207 12.3661 6.09086C12.4966 6.15964 12.6061 6.26385 12.6826 6.39206C12.7591 6.52027 12.7996 6.66753 12.7997 6.81772V13.4094L22.736 6.15169Z" fill="white"/>
<path d="M54 30H62.6667V0H54V30ZM71.3333 0V30H80V0H71.3333Z" fill="white"/>
<path d="M111.264 6.15169C111.144 6.06458 111.004 6.01282 110.857 6.00209C110.711 5.99136 110.564 6.02207 110.434 6.09086C110.303 6.15964 110.194 6.26385 110.117 6.39206C110.041 6.52027 110 6.66753 110 6.81772V23.1823C110 23.3325 110.041 23.4797 110.117 23.6079C110.194 23.7362 110.303 23.8404 110.434 23.9091C110.564 23.9779 110.711 24.0086 110.857 23.9979C111.004 23.9872 111.144 23.9354 111.264 23.8483L121.2 16.5906V23.1823C121.2 23.3325 121.241 23.4797 121.317 23.6079C121.394 23.7362 121.503 23.8404 121.634 23.9091C121.764 23.9779 121.911 24.0086 122.057 23.9979C122.204 23.9872 122.345 23.9354 122.464 23.8483L133.665 15.666C133.768 15.5903 133.853 15.4904 133.911 15.3746C133.97 15.2587 134 15.1303 134 15C134 14.8697 133.97 14.7413 133.911 14.6254C133.853 14.5096 133.768 14.4097 133.665 14.334L122.464 6.15169C122.345 6.06458 122.204 6.01282 122.057 6.00209C121.911 5.99136 121.764 6.02207 121.634 6.09086C121.503 6.15964 121.394 6.26385 121.317 6.39206C121.241 6.52027 121.2 6.66753 121.2 6.81772V13.4094L111.264 6.15169Z" fill="white"/>
</svg>
