<svg width="66" height="66" viewBox="0 0 66 66" fill="none" xmlns="http://www.w3.org/2000/svg">
<g clip-path="url(#clip0_2073_695)">
<path d="M66 33C66 51.2254 51.2254 66 33 66C14.7746 66 0 51.2254 0 33C0 14.7746 14.7746 0 33 0C51.2254 0 66 14.7746 66 33Z" fill="#D9D9D9"/>
<path d="M32.5 13C36.2793 13 39.9039 14.5013 42.5763 17.1737C45.2487 19.8461 46.75 23.4707 46.75 27.25C46.75 31.0293 45.2487 34.6539 42.5763 37.3263C39.9039 39.9987 36.2793 41.5 32.5 41.5C28.7207 41.5 25.0961 39.9987 22.4237 37.3263C19.7513 34.6539 18.25 31.0293 18.25 27.25C18.25 23.4707 19.7513 19.8461 22.4237 17.1737C25.0961 14.5013 28.7207 13 32.5 13ZM32.5 48.625C48.2463 48.625 61 55.0019 61 62.875V70H4V62.875C4 55.0019 16.7537 48.625 32.5 48.625Z" fill="#1E3561"/>
</g>
<defs>
<clipPath id="clip0_2073_695">
<rect width="66" height="66" rx="33" fill="white"/>
</clipPath>
</defs>
</svg>
