<svg width="205" height="101" viewBox="0 0 205 101" fill="none" xmlns="http://www.w3.org/2000/svg">
<path d="M80.2707 89.8122C71.977 89.8122 64.729 88.2584 58.5267 85.1507C52.3965 81.9739 47.6727 77.5541 44.3552 71.8912C41.0377 66.2283 39.3789 59.6676 39.3789 52.2091C39.3789 44.5435 41.1098 37.8102 44.5715 32.0091C48.0333 26.1391 52.9013 21.6502 59.1757 18.5425C65.4501 15.3657 72.626 13.7773 80.7034 13.7773C91.0165 13.7773 100.464 17.0577 109.046 23.6184L98.4449 37.1886C95.1995 34.9096 92.1705 33.2522 89.3578 32.2163C86.5451 31.1804 83.5161 30.6625 80.2707 30.6625C74.1406 30.6625 69.2004 32.5616 65.4501 36.3599C61.772 40.1582 59.933 45.165 59.933 51.3804C59.933 57.872 61.8081 63.0861 65.5583 67.0225C69.3807 70.8898 74.429 72.8235 80.7034 72.8235C83.9488 72.8235 86.9778 72.3056 89.7905 71.2697C92.6032 70.2338 95.6322 68.5418 98.8776 66.1938L109.479 79.8676C105.657 82.9753 101.258 85.4269 96.2813 87.2225C91.3771 88.949 86.0403 89.8122 80.2707 89.8122Z" fill="#1E3561"/>
<path d="M33.8608 89.8122C42.1545 89.8122 49.4026 88.2584 55.6049 85.1507C61.735 81.9739 66.4589 77.5541 69.7764 71.8912C73.0939 66.2283 74.7526 59.6676 74.7526 52.2091C74.7526 44.5435 73.0217 37.8102 69.56 32.0091C66.0983 26.1391 61.2302 21.6502 54.9558 18.5425C48.6814 15.3657 41.5055 13.7773 33.4281 13.7773C23.115 13.7773 13.6673 17.0577 5.08506 23.6184L15.6866 37.1886C18.932 34.9096 21.9611 33.2522 24.7737 32.2163C27.5864 31.1804 30.6154 30.6625 33.8608 30.6625C39.991 30.6625 44.9311 32.5616 48.6814 36.3599C52.3595 40.1582 54.1985 45.165 54.1985 51.3804C54.1985 57.872 52.3234 63.0861 48.5732 67.0225C44.7509 70.8898 39.7025 72.8235 33.4281 72.8235C30.1827 72.8235 27.1537 72.3055 24.341 71.2696C21.5283 70.2337 18.4993 68.5418 15.2539 66.1937L4.65234 79.8676C8.47469 82.9753 12.874 85.4269 17.8502 87.2225C22.7544 88.949 28.0912 89.8122 33.8608 89.8122Z" fill="#A9BECC"/>
<path d="M45.0561 31.9433L47.4902 28.5767L48.3016 27.5407L49.1129 26.5049L50.4651 24.951L52.0878 23.3972L53.9809 21.8433L58.3081 18.7356L62.3648 21.0664L66.151 24.4331L69.3964 27.7997L71.2896 31.9433L62.406 36.39C60.4309 37.3787 58.7623 38.8513 57.5714 40.657C56.6315 42.0819 56.0268 43.6846 55.7996 45.3528L55.3332 48.7766L55.3332 50.3305L55.3332 52.1433L55.198 53.6971L55.0628 55.251L54.6571 56.8048L54.2514 58.3587L54.2127 58.4699C53.521 60.457 52.5319 62.3388 51.2765 64.0561L49.6538 66.1279L47.4902 67.9407L44.7856 69.7536L43.7039 67.1638L42.8926 65.092L42.0812 62.7612L41.5403 60.4305L40.729 55.7689L40.4585 51.1074L40.729 46.1869L41.5403 41.7843L42.8926 36.8638L45.0561 31.9433Z" fill="#1E3561"/>
<path d="M114.941 32.9941C117.285 32.9941 119.016 33.4085 120.134 34.2372C121.252 35.0487 121.81 36.3263 121.81 38.07V46.0982H117.294C117.294 45.4249 117.348 44.6135 117.456 43.6639H117.375C117.069 44.4408 116.519 45.0796 115.725 45.5803C114.95 46.081 114.022 46.3313 112.94 46.3313C111.569 46.3313 110.461 45.9515 109.613 45.1918C108.784 44.4322 108.369 43.4394 108.369 42.2136C108.369 40.9188 108.856 39.9001 109.83 39.1577C110.821 38.3981 112.128 38.0182 113.751 38.0182C114.941 38.0182 115.996 38.1995 116.915 38.5621V38.5362C116.915 37.7938 116.699 37.2586 116.266 36.9306C115.852 36.6025 115.166 36.4385 114.211 36.4385C113.039 36.4385 111.669 36.6716 110.1 37.1377L109.289 33.9782C110.298 33.6329 111.236 33.3826 112.101 33.2272C112.967 33.0718 113.913 32.9941 114.941 32.9941ZM114.671 42.8093C115.284 42.8093 115.797 42.6539 116.212 42.3431C116.627 42.0323 116.879 41.6007 116.969 41.0482C116.194 40.7547 115.473 40.608 114.806 40.608C114.301 40.608 113.913 40.7116 113.643 40.9188C113.372 41.1087 113.237 41.3849 113.237 41.7475C113.237 42.0755 113.363 42.3345 113.616 42.5244C113.868 42.7143 114.22 42.8093 114.671 42.8093Z" fill="#1E3561"/>
<path d="M141.692 33.02C143.279 33.02 144.523 33.5121 145.425 34.4962C146.326 35.463 146.777 36.7838 146.777 38.4585V46.0982H141.855V38.9247C141.855 38.3204 141.701 37.8629 141.395 37.5521C141.106 37.2241 140.683 37.06 140.124 37.06C139.547 37.06 139.087 37.2327 138.745 37.578C138.402 37.9233 138.231 38.3894 138.231 38.9764V46.0982H133.363V38.9247C133.363 38.3031 133.209 37.8283 132.903 37.5003C132.614 37.155 132.191 36.9823 131.632 36.9823C131.055 36.9823 130.595 37.1636 130.252 37.5262C129.91 37.8888 129.739 38.3722 129.739 38.9764V46.0982H124.816V33.3049H129.198C129.198 34.0473 129.108 34.8588 128.927 35.7393H129.008C129.82 33.9264 131.199 33.02 133.146 33.02C134.138 33.02 134.976 33.2531 135.661 33.7193C136.365 34.1682 136.842 34.7811 137.095 35.558C137.509 34.6775 138.122 34.0387 138.934 33.6416C139.745 33.2272 140.665 33.02 141.692 33.02Z" fill="#1E3561"/>
<path d="M149.775 51.4331V33.3049H154.372C154.372 34.0473 154.282 34.8588 154.102 35.7393H154.183C154.67 34.9278 155.328 34.2717 156.157 33.7711C156.987 33.2704 157.906 33.02 158.916 33.02C160.034 33.02 161.034 33.2876 161.918 33.8229C162.801 34.3408 163.496 35.1005 164 36.1018C164.523 37.1032 164.785 38.2772 164.785 39.6239C164.785 40.936 164.514 42.11 163.973 43.1459C163.45 44.1646 162.711 44.9588 161.756 45.5285C160.818 46.0982 159.772 46.3831 158.618 46.3831C157.627 46.3831 156.77 46.1932 156.049 45.8134C155.346 45.4335 154.814 44.907 154.454 44.2336L154.372 44.2595C154.589 45.1228 154.697 46.2536 154.697 47.6521V51.4331H149.775ZM157.104 42.5762C157.933 42.5762 158.609 42.3172 159.132 41.7993C159.655 41.2813 159.917 40.5994 159.917 39.7534C159.917 38.8729 159.664 38.165 159.159 37.6298C158.655 37.0946 157.987 36.827 157.158 36.827C156.401 36.827 155.779 37.0946 155.292 37.6298C154.823 38.1477 154.589 38.8211 154.589 39.6498C154.589 40.5303 154.814 41.2382 155.265 41.7734C155.716 42.3086 156.329 42.5762 157.104 42.5762Z" fill="#1E3561"/>
<path d="M172.265 46.3831C170.534 46.3831 169.218 45.8824 168.317 44.8811C167.433 43.8624 166.992 42.3863 166.992 40.4526V33.3049H171.914V40.349C171.914 41.0396 172.076 41.5835 172.401 41.9806C172.725 42.3776 173.176 42.5762 173.753 42.5762C174.438 42.5762 174.979 42.3517 175.376 41.9029C175.79 41.454 175.998 40.8583 175.998 40.1159V33.3049H180.92V46.0982H176.538C176.538 45.4249 176.593 44.6135 176.701 43.6639H176.62C176.295 44.4408 175.736 45.0882 174.943 45.6062C174.168 46.1241 173.275 46.3831 172.265 46.3831Z" fill="#1E3561"/>
<path d="M189.005 46.3831C186.824 46.3831 184.895 46.0206 183.218 45.2954L184.516 41.8252C186.175 42.4122 187.707 42.7057 189.114 42.7057C189.6 42.7057 189.952 42.6539 190.168 42.5503C190.385 42.4467 190.493 42.2741 190.493 42.0323C190.493 41.7906 190.358 41.6094 190.087 41.4885C189.817 41.3676 189.285 41.2554 188.492 41.1518C186.923 40.9447 185.715 40.4958 184.868 39.8052C184.038 39.1146 183.624 38.2341 183.624 37.1636C183.624 35.886 184.146 34.876 185.192 34.1336C186.238 33.3912 187.653 33.02 189.438 33.02C190.195 33.02 191.061 33.115 192.035 33.3049C193.008 33.4948 193.837 33.7279 194.523 34.0041L193.252 37.4744C192.711 37.1982 192.071 36.9823 191.331 36.827C190.592 36.6543 189.907 36.568 189.276 36.568C188.537 36.568 188.167 36.8011 188.167 37.2672C188.167 37.5089 188.275 37.6816 188.492 37.7852C188.708 37.8888 189.114 37.9751 189.709 38.0441C193.279 38.4067 195.064 39.7706 195.064 42.1359C195.064 43.4481 194.523 44.484 193.441 45.2436C192.359 46.0033 190.881 46.3831 189.005 46.3831Z" fill="#1E3561"/>
<path d="M115.752 73.8344C114.274 73.8344 112.976 73.5668 111.858 73.0316C110.758 72.4964 109.911 71.7367 109.316 70.7526C108.721 69.7512 108.423 68.5859 108.423 67.2565C108.423 65.8925 108.73 64.7012 109.343 63.6826C109.974 62.6467 110.866 61.8525 112.02 61.3C113.192 60.7476 114.553 60.4713 116.104 60.4713C117.582 60.4713 118.872 60.7389 119.971 61.2741C121.071 61.8094 121.919 62.5776 122.514 63.579C123.109 64.5631 123.406 65.7199 123.406 67.0493C123.406 68.4132 123.091 69.6131 122.46 70.649C121.846 71.6676 120.963 72.4532 119.809 73.0057C118.655 73.5582 117.303 73.8344 115.752 73.8344ZM115.861 70.0534C116.672 70.0534 117.321 69.803 117.808 69.3023C118.295 68.7844 118.538 68.1024 118.538 67.2565C118.538 66.3414 118.304 65.6163 117.835 65.0811C117.366 64.5286 116.753 64.2523 115.996 64.2523C115.184 64.2523 114.526 64.5113 114.022 65.0293C113.535 65.53 113.291 66.2033 113.291 67.0493C113.291 67.9643 113.526 68.6981 113.994 69.2506C114.463 69.7858 115.085 70.0534 115.861 70.0534Z" fill="#1E3561"/>
<path d="M125.767 73.5495V60.7562H130.176C130.176 61.4295 130.121 62.241 130.013 63.1906H130.094C130.419 62.3964 130.978 61.7489 131.771 61.2482C132.583 60.7303 133.52 60.4713 134.584 60.4713C136.152 60.4713 137.415 60.8943 138.37 61.7403C139.326 62.569 139.804 63.9675 139.804 65.9357V73.5495H134.881V66.4018C134.881 65.6767 134.692 65.1415 134.313 64.7962C133.953 64.4509 133.511 64.2782 132.988 64.2782C132.339 64.2782 131.789 64.4941 131.338 64.9257C130.906 65.34 130.689 65.9443 130.689 66.7385V73.5495H125.767Z" fill="#1E3561"/>
<path d="M142.802 73.5495V60.7562H147.211C147.211 61.4295 147.157 62.241 147.048 63.1906H147.129C147.454 62.3964 148.013 61.7489 148.806 61.2482C149.618 60.7303 150.555 60.4713 151.619 60.4713C153.188 60.4713 154.45 60.8943 155.405 61.7403C156.361 62.569 156.839 63.9675 156.839 65.9357V73.5495H151.916V66.4018C151.916 65.6767 151.727 65.1415 151.348 64.7962C150.988 64.4509 150.546 64.2782 150.023 64.2782C149.374 64.2782 148.824 64.4941 148.374 64.9257C147.941 65.34 147.724 65.9443 147.724 66.7385V73.5495H142.802Z" fill="#1E3561"/>
<path d="M173.116 66.5572C173.116 67.2306 173.044 67.8435 172.9 68.3959H164.029C164.174 69.0175 164.534 69.5009 165.111 69.8462C165.706 70.1742 166.319 70.3382 166.95 70.3382C168.194 70.3382 169.303 69.9843 170.277 69.2765L172.278 71.9439C171.593 72.5482 170.764 73.0143 169.79 73.3424C168.834 73.6704 167.798 73.8344 166.68 73.8344C165.255 73.8344 163.966 73.6013 162.812 73.1352C161.676 72.6517 160.766 71.918 160.081 70.9339C159.396 69.9325 159.053 68.6894 159.053 67.2047C159.053 65.7199 159.405 64.4768 160.108 63.4754C160.829 62.4568 161.749 61.7058 162.866 61.2223C163.984 60.7217 165.165 60.4713 166.409 60.4713C167.689 60.4713 168.834 60.713 169.844 61.1965C170.872 61.6799 171.674 62.3791 172.251 63.2941C172.828 64.2092 173.116 65.2969 173.116 66.5572ZM166.301 63.838C165.67 63.838 165.129 64.0279 164.678 64.4077C164.246 64.7876 164.011 65.3314 163.975 66.0393H168.438C168.51 65.3314 168.329 64.7876 167.897 64.4077C167.482 64.0279 166.95 63.838 166.301 63.838Z" fill="#1E3561"/>
<path d="M182.075 73.8344C180.542 73.8344 179.208 73.5668 178.072 73.0316C176.936 72.4964 176.062 71.7281 175.449 70.7267C174.854 69.7253 174.556 68.5513 174.556 67.2047C174.556 65.858 174.863 64.6753 175.476 63.6567C176.107 62.6381 176.99 61.8525 178.126 61.3C179.28 60.7476 180.605 60.4713 182.102 60.4713C183.003 60.4713 183.86 60.5835 184.671 60.808C185.501 61.0324 186.231 61.3605 186.862 61.7921L184.887 65.0293C184.166 64.5113 183.355 64.2523 182.453 64.2523C181.534 64.2523 180.795 64.52 180.236 65.0552C179.695 65.5731 179.424 66.2551 179.424 67.1011C179.424 67.9988 179.686 68.7153 180.209 69.2506C180.75 69.7858 181.462 70.0534 182.345 70.0534C183.337 70.0534 184.238 69.734 185.05 69.0952L187.132 72.2806C185.582 73.3164 183.896 73.8344 182.075 73.8344Z" fill="#1E3561"/>
<path d="M199.184 73.0057C198.048 73.5754 196.759 73.8603 195.317 73.8603C193.694 73.8603 192.468 73.4287 191.639 72.5654C190.809 71.6849 190.394 70.39 190.394 68.6808V64.33H188.258V60.7562H190.394V57.6744L195.29 57.1565V60.7562H198.346V64.33H195.29V68.5254C195.29 69.4923 195.74 69.9757 196.642 69.9757C197.129 69.9757 197.615 69.8807 198.102 69.6908L199.184 73.0057Z" fill="#1E3561"/>
</svg>
