<svg width="22" height="20" viewBox="0 0 22 20" fill="none" xmlns="http://www.w3.org/2000/svg">
<path d="M10.2867 1.00431C10.5112 0.313323 11.4888 0.313323 11.7133 1.0043L13.4564 6.36905C13.6237 6.88408 14.1037 7.23278 14.6452 7.23278H20.2861C21.0126 7.23278 21.3147 8.16249 20.7269 8.58954L16.1634 11.9051C15.7253 12.2234 15.5419 12.7877 15.7093 13.3027L17.4524 18.6674C17.6769 19.3584 16.886 19.933 16.2983 19.5059L11.7347 16.1904C11.2966 15.8721 10.7034 15.8721 10.2653 16.1904L5.70174 19.5059C5.11396 19.933 4.3231 19.3584 4.54761 18.6674L6.29072 13.3027C6.45807 12.7877 6.27474 12.2234 5.83663 11.9051L1.27311 8.58954C0.685325 8.16249 0.987407 7.23278 1.71395 7.23278H7.35477C7.89631 7.23278 8.37625 6.88408 8.5436 6.36905L10.2867 1.00431Z" fill="#FBBA07" stroke="black" stroke-width="0.5"/>
</svg>
